<mxfile host="app.diagrams.net" agent="Mozilla/5.0 (Macintosh; Intel Mac OS X 10_15_7) AppleWebKit/537.36 (KHTML, like Gecko) Chrome/128.0.0.0 Safari/537.36" version="28.1.0">
  <diagram name="第 1 页" id="Q9KVWfQnuW8tYj191-a5">
    <mxGraphModel dx="1957" dy="1893" grid="1" gridSize="10" guides="1" tooltips="1" connect="1" arrows="1" fold="1" page="1" pageScale="1" pageWidth="827" pageHeight="1169" background="#797979" math="0" shadow="0">
      <root>
        <mxCell id="0" />
        <mxCell id="1" parent="0" />
        <mxCell id="gZisv0LToNcyDYz6pqxV-2" value="&lt;font style=&quot;font-size: 20px;&quot;&gt;第一章：怎样制作一个游戏&lt;/font&gt;" style="swimlane;whiteSpace=wrap;html=1;fontSize=24;" parent="1" vertex="1">
          <mxGeometry x="-70" y="-230" width="1520" height="1080" as="geometry">
            <mxRectangle x="30" y="-180" width="280" height="40" as="alternateBounds" />
          </mxGeometry>
        </mxCell>
        <mxCell id="gZisv0LToNcyDYz6pqxV-7" value="&lt;font style=&quot;font-size: 16px;&quot;&gt;典型的游戏开发的两个主要阶段：&lt;/font&gt;" style="text;strokeColor=none;fillColor=none;html=1;fontSize=12;fontStyle=1;verticalAlign=middle;align=left;" parent="gZisv0LToNcyDYz6pqxV-2" vertex="1">
          <mxGeometry x="30" y="30" width="240" height="30" as="geometry" />
        </mxCell>
        <mxCell id="gZisv0LToNcyDYz6pqxV-8" value="&lt;ul&gt;&lt;li&gt;产品开发阶段&lt;/li&gt;&lt;li&gt;产品准备阶段&lt;/li&gt;&lt;/ul&gt;" style="text;strokeColor=none;fillColor=none;html=1;whiteSpace=wrap;verticalAlign=middle;overflow=hidden;" parent="gZisv0LToNcyDYz6pqxV-2" vertex="1">
          <mxGeometry x="30" y="60" width="120" height="60" as="geometry" />
        </mxCell>
        <mxCell id="gZisv0LToNcyDYz6pqxV-12" value="" style="edgeStyle=orthogonalEdgeStyle;rounded=0;orthogonalLoop=1;jettySize=auto;html=1;" parent="gZisv0LToNcyDYz6pqxV-2" source="gZisv0LToNcyDYz6pqxV-9" target="gZisv0LToNcyDYz6pqxV-11" edge="1">
          <mxGeometry relative="1" as="geometry" />
        </mxCell>
        <mxCell id="gZisv0LToNcyDYz6pqxV-9" value="产品准备阶段：进行头脑风暴" style="rounded=1;whiteSpace=wrap;html=1;" parent="gZisv0LToNcyDYz6pqxV-2" vertex="1">
          <mxGeometry x="50" y="120" width="220" height="50" as="geometry" />
        </mxCell>
        <mxCell id="gZisv0LToNcyDYz6pqxV-17" value="" style="edgeStyle=orthogonalEdgeStyle;rounded=0;orthogonalLoop=1;jettySize=auto;html=1;" parent="gZisv0LToNcyDYz6pqxV-2" source="gZisv0LToNcyDYz6pqxV-11" target="gZisv0LToNcyDYz6pqxV-16" edge="1">
          <mxGeometry relative="1" as="geometry" />
        </mxCell>
        <mxCell id="gZisv0LToNcyDYz6pqxV-11" value="高度概念化，确定项目，设定美术方向" style="whiteSpace=wrap;html=1;rounded=1;" parent="gZisv0LToNcyDYz6pqxV-2" vertex="1">
          <mxGeometry x="50" y="200" width="220" height="50" as="geometry" />
        </mxCell>
        <mxCell id="gZisv0LToNcyDYz6pqxV-19" value="" style="edgeStyle=orthogonalEdgeStyle;rounded=0;orthogonalLoop=1;jettySize=auto;html=1;" parent="gZisv0LToNcyDYz6pqxV-2" source="gZisv0LToNcyDYz6pqxV-16" target="gZisv0LToNcyDYz6pqxV-18" edge="1">
          <mxGeometry relative="1" as="geometry" />
        </mxCell>
        <mxCell id="gZisv0LToNcyDYz6pqxV-16" value="设计文档，开发设计，制作世界地图" style="whiteSpace=wrap;html=1;rounded=1;" parent="gZisv0LToNcyDYz6pqxV-2" vertex="1">
          <mxGeometry x="50" y="280" width="220" height="50" as="geometry" />
        </mxCell>
        <mxCell id="gZisv0LToNcyDYz6pqxV-21" value="" style="edgeStyle=orthogonalEdgeStyle;rounded=0;orthogonalLoop=1;jettySize=auto;html=1;" parent="gZisv0LToNcyDYz6pqxV-2" source="gZisv0LToNcyDYz6pqxV-18" target="gZisv0LToNcyDYz6pqxV-20" edge="1">
          <mxGeometry relative="1" as="geometry" />
        </mxCell>
        <mxCell id="gZisv0LToNcyDYz6pqxV-18" value="原型版本/演示版本：建立开发技术，制作开发工具" style="whiteSpace=wrap;html=1;rounded=1;" parent="gZisv0LToNcyDYz6pqxV-2" vertex="1">
          <mxGeometry x="50" y="350" width="220" height="50" as="geometry" />
        </mxCell>
        <mxCell id="gZisv0LToNcyDYz6pqxV-23" value="" style="edgeStyle=orthogonalEdgeStyle;rounded=0;orthogonalLoop=1;jettySize=auto;html=1;" parent="gZisv0LToNcyDYz6pqxV-2" source="gZisv0LToNcyDYz6pqxV-20" target="gZisv0LToNcyDYz6pqxV-22" edge="1">
          <mxGeometry relative="1" as="geometry" />
        </mxCell>
        <mxCell id="gZisv0LToNcyDYz6pqxV-20" value="产品开发阶段：制作关卡，制作美术资源，加入功能，修正游戏内容" style="whiteSpace=wrap;html=1;rounded=1;" parent="gZisv0LToNcyDYz6pqxV-2" vertex="1">
          <mxGeometry x="50" y="430" width="220" height="90" as="geometry" />
        </mxCell>
        <mxCell id="gZisv0LToNcyDYz6pqxV-25" value="" style="edgeStyle=orthogonalEdgeStyle;rounded=0;orthogonalLoop=1;jettySize=auto;html=1;" parent="gZisv0LToNcyDYz6pqxV-2" source="gZisv0LToNcyDYz6pqxV-22" target="gZisv0LToNcyDYz6pqxV-24" edge="1">
          <mxGeometry relative="1" as="geometry" />
        </mxCell>
        <mxCell id="gZisv0LToNcyDYz6pqxV-22" value="Alpha阶段：改善游戏内容，替换美术资源，修正问题" style="whiteSpace=wrap;html=1;rounded=1;" parent="gZisv0LToNcyDYz6pqxV-2" vertex="1">
          <mxGeometry x="50" y="550" width="220" height="70" as="geometry" />
        </mxCell>
        <mxCell id="gZisv0LToNcyDYz6pqxV-27" value="" style="edgeStyle=orthogonalEdgeStyle;rounded=0;orthogonalLoop=1;jettySize=auto;html=1;" parent="gZisv0LToNcyDYz6pqxV-2" source="gZisv0LToNcyDYz6pqxV-24" target="gZisv0LToNcyDYz6pqxV-26" edge="1">
          <mxGeometry relative="1" as="geometry" />
        </mxCell>
        <mxCell id="gZisv0LToNcyDYz6pqxV-24" value="Beta阶段：修正问题" style="whiteSpace=wrap;html=1;rounded=1;" parent="gZisv0LToNcyDYz6pqxV-2" vertex="1">
          <mxGeometry x="50" y="640" width="220" height="30" as="geometry" />
        </mxCell>
        <mxCell id="gZisv0LToNcyDYz6pqxV-29" value="" style="edgeStyle=orthogonalEdgeStyle;rounded=0;orthogonalLoop=1;jettySize=auto;html=1;" parent="gZisv0LToNcyDYz6pqxV-2" source="gZisv0LToNcyDYz6pqxV-26" target="gZisv0LToNcyDYz6pqxV-28" edge="1">
          <mxGeometry relative="1" as="geometry" />
        </mxCell>
        <mxCell id="gZisv0LToNcyDYz6pqxV-26" value="最终候选版本：修正主要问题" style="whiteSpace=wrap;html=1;rounded=1;" parent="gZisv0LToNcyDYz6pqxV-2" vertex="1">
          <mxGeometry x="50" y="690" width="220" height="30" as="geometry" />
        </mxCell>
        <mxCell id="gZisv0LToNcyDYz6pqxV-28" value="母盘阶段：休假，下一个项目的头脑风暴" style="whiteSpace=wrap;html=1;rounded=1;" parent="gZisv0LToNcyDYz6pqxV-2" vertex="1">
          <mxGeometry x="50" y="740" width="220" height="50" as="geometry" />
        </mxCell>
        <mxCell id="gZisv0LToNcyDYz6pqxV-34" value="" style="endArrow=none;dashed=1;html=1;dashPattern=1 3;strokeWidth=2;rounded=0;exitX=1;exitY=0.5;exitDx=0;exitDy=0;entryX=0;entryY=0;entryDx=0;entryDy=0;" parent="gZisv0LToNcyDYz6pqxV-2" source="gZisv0LToNcyDYz6pqxV-11" target="gZisv0LToNcyDYz6pqxV-36" edge="1">
          <mxGeometry width="50" height="50" relative="1" as="geometry">
            <mxPoint x="300" y="240" as="sourcePoint" />
            <mxPoint x="330" y="225" as="targetPoint" />
          </mxGeometry>
        </mxCell>
        <mxCell id="gZisv0LToNcyDYz6pqxV-36" value="&lt;span style=&quot;font-size: 12px; font-weight: 400; text-align: left;&quot;&gt;高度概念化实例《安魂曲：复仇天使》&lt;/span&gt;" style="swimlane;whiteSpace=wrap;html=1;fontSize=24;startSize=23;" parent="gZisv0LToNcyDYz6pqxV-2" vertex="1" collapsed="1">
          <mxGeometry x="400" y="125" width="280" height="40" as="geometry">
            <mxRectangle x="750" y="90" width="350" height="150" as="alternateBounds" />
          </mxGeometry>
        </mxCell>
        <mxCell id="gZisv0LToNcyDYz6pqxV-35" value="&lt;div&gt;&amp;nbsp; &lt;font style=&quot;font-size: 10px;&quot;&gt;这部游戏是一款第一人称的即时动作游戏，包含热血格斗和复杂的解密要素。这种来自第一人称的真实感、战栗感和战斗感无疑让人十分上瘾，只是，在大部分第一人称的射击游戏中，这种战栗的快感通常会被单机游戏里持续不断的抽搐动作和太过简单的AI判定抵消掉，后两者都让人感觉重复且枯燥。该作品则是一款具有这些动人心魄的要素的智能化射击游戏，它包含增强的AI，真实的友军角色交互，以及动人的故事背景。&lt;/font&gt;&lt;/div&gt;" style="rounded=1;whiteSpace=wrap;html=1;align=left;" parent="gZisv0LToNcyDYz6pqxV-36" vertex="1">
          <mxGeometry x="5" y="25" width="340" height="120" as="geometry" />
        </mxCell>
        <mxCell id="gZisv0LToNcyDYz6pqxV-59" value="&lt;div style=&quot;&quot;&gt;&lt;span style=&quot;font-size: 14px; font-weight: 400;&quot;&gt;用来确认功能和流程确认的菜单图&lt;/span&gt;&lt;/div&gt;" style="swimlane;whiteSpace=wrap;html=1;fontSize=24;startSize=23;align=center;" parent="gZisv0LToNcyDYz6pqxV-2" vertex="1" collapsed="1">
          <mxGeometry x="400" y="220" width="280" height="40" as="geometry">
            <mxRectangle x="470" y="180" width="890" height="620" as="alternateBounds" />
          </mxGeometry>
        </mxCell>
        <mxCell id="gZisv0LToNcyDYz6pqxV-60" value="&lt;b&gt;启动界面&lt;/b&gt;&lt;div&gt;标题 &amp;amp; 底图&lt;/div&gt;" style="rounded=1;whiteSpace=wrap;html=1;align=center;" parent="gZisv0LToNcyDYz6pqxV-59" vertex="1">
          <mxGeometry x="405" y="35" width="115" height="55" as="geometry" />
        </mxCell>
        <mxCell id="gZisv0LToNcyDYz6pqxV-70" value="" style="edgeStyle=orthogonalEdgeStyle;rounded=0;orthogonalLoop=1;jettySize=auto;html=1;" parent="gZisv0LToNcyDYz6pqxV-59" source="gZisv0LToNcyDYz6pqxV-66" target="gZisv0LToNcyDYz6pqxV-69" edge="1">
          <mxGeometry relative="1" as="geometry" />
        </mxCell>
        <mxCell id="N5i_9kAfN4ddNZ_Lg2z2-2" value="" style="edgeStyle=orthogonalEdgeStyle;rounded=0;orthogonalLoop=1;jettySize=auto;html=1;" edge="1" parent="gZisv0LToNcyDYz6pqxV-59" source="gZisv0LToNcyDYz6pqxV-66" target="N5i_9kAfN4ddNZ_Lg2z2-1">
          <mxGeometry relative="1" as="geometry" />
        </mxCell>
        <mxCell id="N5i_9kAfN4ddNZ_Lg2z2-34" value="" style="edgeStyle=orthogonalEdgeStyle;rounded=0;orthogonalLoop=1;jettySize=auto;html=1;" edge="1" parent="gZisv0LToNcyDYz6pqxV-59" source="gZisv0LToNcyDYz6pqxV-66" target="N5i_9kAfN4ddNZ_Lg2z2-33">
          <mxGeometry relative="1" as="geometry" />
        </mxCell>
        <mxCell id="gZisv0LToNcyDYz6pqxV-66" value="&lt;b&gt;主菜单&lt;/b&gt;&lt;div&gt;单人游戏&lt;/div&gt;&lt;div&gt;多人游戏&lt;/div&gt;&lt;div&gt;选项&lt;/div&gt;&lt;div&gt;制作人员&lt;/div&gt;&lt;div&gt;退出&lt;/div&gt;" style="rounded=0;whiteSpace=wrap;html=1;" parent="gZisv0LToNcyDYz6pqxV-59" vertex="1">
          <mxGeometry x="401.25" y="122.5" width="122.5" height="100" as="geometry" />
        </mxCell>
        <mxCell id="gZisv0LToNcyDYz6pqxV-67" value="" style="endArrow=classic;html=1;rounded=0;entryX=0.5;entryY=0;entryDx=0;entryDy=0;exitX=0.5;exitY=1;exitDx=0;exitDy=0;" parent="gZisv0LToNcyDYz6pqxV-59" source="gZisv0LToNcyDYz6pqxV-60" target="gZisv0LToNcyDYz6pqxV-66" edge="1">
          <mxGeometry width="50" height="50" relative="1" as="geometry">
            <mxPoint x="235" y="120" as="sourcePoint" />
            <mxPoint x="285" y="70" as="targetPoint" />
          </mxGeometry>
        </mxCell>
        <mxCell id="gZisv0LToNcyDYz6pqxV-72" value="" style="edgeStyle=orthogonalEdgeStyle;rounded=0;orthogonalLoop=1;jettySize=auto;html=1;" parent="gZisv0LToNcyDYz6pqxV-59" source="gZisv0LToNcyDYz6pqxV-69" target="gZisv0LToNcyDYz6pqxV-71" edge="1">
          <mxGeometry relative="1" as="geometry" />
        </mxCell>
        <mxCell id="gZisv0LToNcyDYz6pqxV-73" value="" style="edgeStyle=orthogonalEdgeStyle;rounded=0;orthogonalLoop=1;jettySize=auto;html=1;" parent="gZisv0LToNcyDYz6pqxV-59" source="gZisv0LToNcyDYz6pqxV-69" target="gZisv0LToNcyDYz6pqxV-71" edge="1">
          <mxGeometry relative="1" as="geometry" />
        </mxCell>
        <mxCell id="gZisv0LToNcyDYz6pqxV-75" value="" style="edgeStyle=orthogonalEdgeStyle;rounded=0;orthogonalLoop=1;jettySize=auto;html=1;" parent="gZisv0LToNcyDYz6pqxV-59" source="gZisv0LToNcyDYz6pqxV-69" target="gZisv0LToNcyDYz6pqxV-74" edge="1">
          <mxGeometry relative="1" as="geometry" />
        </mxCell>
        <mxCell id="gZisv0LToNcyDYz6pqxV-79" value="" style="edgeStyle=orthogonalEdgeStyle;rounded=0;orthogonalLoop=1;jettySize=auto;html=1;" parent="gZisv0LToNcyDYz6pqxV-59" source="gZisv0LToNcyDYz6pqxV-69" target="gZisv0LToNcyDYz6pqxV-78" edge="1">
          <mxGeometry relative="1" as="geometry" />
        </mxCell>
        <mxCell id="gZisv0LToNcyDYz6pqxV-69" value="&lt;b&gt;多人游戏&lt;/b&gt;&lt;div&gt;开始游戏&lt;/div&gt;&lt;div&gt;加入游戏&lt;/div&gt;&lt;div&gt;玩家属性&lt;/div&gt;&lt;div&gt;退出&lt;/div&gt;" style="whiteSpace=wrap;html=1;rounded=0;" parent="gZisv0LToNcyDYz6pqxV-59" vertex="1">
          <mxGeometry x="575" y="122.5" width="120" height="75" as="geometry" />
        </mxCell>
        <mxCell id="gZisv0LToNcyDYz6pqxV-71" value="&lt;b&gt;玩家属性&lt;/b&gt;&lt;div&gt;名称&lt;/div&gt;&lt;div&gt;模型&lt;/div&gt;&lt;div&gt;颜色&lt;/div&gt;" style="whiteSpace=wrap;html=1;rounded=0;" parent="gZisv0LToNcyDYz6pqxV-59" vertex="1">
          <mxGeometry x="745" y="90" width="120" height="60" as="geometry" />
        </mxCell>
        <mxCell id="gZisv0LToNcyDYz6pqxV-74" value="&lt;b&gt;加入游戏&lt;/b&gt;&lt;div&gt;网址&lt;/div&gt;&lt;div&gt;本地局域网&lt;/div&gt;&lt;div&gt;服务器搜索&lt;/div&gt;" style="whiteSpace=wrap;html=1;rounded=0;" parent="gZisv0LToNcyDYz6pqxV-59" vertex="1">
          <mxGeometry x="745" y="180" width="120" height="60" as="geometry" />
        </mxCell>
        <mxCell id="gZisv0LToNcyDYz6pqxV-78" value="&lt;b&gt;开始游戏&lt;/b&gt;&lt;br&gt;&lt;div&gt;网址&lt;/div&gt;&lt;div&gt;本地局域网&lt;/div&gt;&lt;div&gt;服务器名&lt;/div&gt;&lt;div&gt;地图&lt;/div&gt;&lt;div&gt;游戏类型&lt;/div&gt;" style="whiteSpace=wrap;html=1;rounded=0;" parent="gZisv0LToNcyDYz6pqxV-59" vertex="1">
          <mxGeometry x="575" y="230" width="120" height="100" as="geometry" />
        </mxCell>
        <mxCell id="gZisv0LToNcyDYz6pqxV-80" value="&lt;b&gt;链接界面&lt;/b&gt;&lt;div&gt;搜索出的游戏&lt;/div&gt;&lt;div&gt;列表&lt;/div&gt;" style="whiteSpace=wrap;html=1;rounded=0;" parent="gZisv0LToNcyDYz6pqxV-59" vertex="1">
          <mxGeometry x="575" y="370" width="120" height="60" as="geometry" />
        </mxCell>
        <mxCell id="N5i_9kAfN4ddNZ_Lg2z2-4" value="" style="edgeStyle=orthogonalEdgeStyle;rounded=0;orthogonalLoop=1;jettySize=auto;html=1;" edge="1" parent="gZisv0LToNcyDYz6pqxV-59" source="N5i_9kAfN4ddNZ_Lg2z2-1" target="N5i_9kAfN4ddNZ_Lg2z2-3">
          <mxGeometry relative="1" as="geometry" />
        </mxCell>
        <mxCell id="N5i_9kAfN4ddNZ_Lg2z2-32" value="" style="edgeStyle=orthogonalEdgeStyle;rounded=0;orthogonalLoop=1;jettySize=auto;html=1;" edge="1" parent="gZisv0LToNcyDYz6pqxV-59" source="N5i_9kAfN4ddNZ_Lg2z2-1" target="N5i_9kAfN4ddNZ_Lg2z2-30">
          <mxGeometry relative="1" as="geometry" />
        </mxCell>
        <mxCell id="N5i_9kAfN4ddNZ_Lg2z2-1" value="&lt;b&gt;单人游戏&lt;/b&gt;&lt;div&gt;新游戏&lt;/div&gt;&lt;div&gt;加载游戏&lt;/div&gt;&lt;div&gt;退出&lt;/div&gt;" style="whiteSpace=wrap;html=1;rounded=0;" vertex="1" parent="gZisv0LToNcyDYz6pqxV-59">
          <mxGeometry x="402.5" y="240" width="120" height="60" as="geometry" />
        </mxCell>
        <mxCell id="N5i_9kAfN4ddNZ_Lg2z2-3" value="&lt;b&gt;加载界面&lt;/b&gt;&lt;div&gt;图片显示&lt;/div&gt;" style="whiteSpace=wrap;html=1;rounded=0;" vertex="1" parent="gZisv0LToNcyDYz6pqxV-59">
          <mxGeometry x="402.5" y="345" width="120" height="60" as="geometry" />
        </mxCell>
        <mxCell id="N5i_9kAfN4ddNZ_Lg2z2-9" value="" style="endArrow=classic;html=1;rounded=0;entryX=1;entryY=0;entryDx=0;entryDy=0;exitX=0;exitY=1;exitDx=0;exitDy=0;" edge="1" parent="gZisv0LToNcyDYz6pqxV-59" source="gZisv0LToNcyDYz6pqxV-78" target="N5i_9kAfN4ddNZ_Lg2z2-3">
          <mxGeometry width="50" height="50" relative="1" as="geometry">
            <mxPoint x="565" y="280" as="sourcePoint" />
            <mxPoint x="615" y="230" as="targetPoint" />
          </mxGeometry>
        </mxCell>
        <mxCell id="N5i_9kAfN4ddNZ_Lg2z2-10" value="" style="endArrow=classic;html=1;rounded=0;entryX=1;entryY=0.5;entryDx=0;entryDy=0;exitX=0.5;exitY=1;exitDx=0;exitDy=0;" edge="1" parent="gZisv0LToNcyDYz6pqxV-59" source="gZisv0LToNcyDYz6pqxV-74" target="gZisv0LToNcyDYz6pqxV-80">
          <mxGeometry width="50" height="50" relative="1" as="geometry">
            <mxPoint x="745" y="340" as="sourcePoint" />
            <mxPoint x="795" y="290" as="targetPoint" />
            <Array as="points">
              <mxPoint x="805" y="400" />
            </Array>
          </mxGeometry>
        </mxCell>
        <mxCell id="N5i_9kAfN4ddNZ_Lg2z2-14" value="" style="endArrow=classic;html=1;rounded=0;entryX=1;entryY=0.5;entryDx=0;entryDy=0;exitX=0;exitY=0.5;exitDx=0;exitDy=0;" edge="1" parent="gZisv0LToNcyDYz6pqxV-59" source="gZisv0LToNcyDYz6pqxV-80" target="N5i_9kAfN4ddNZ_Lg2z2-3">
          <mxGeometry width="50" height="50" relative="1" as="geometry">
            <mxPoint x="565" y="540" as="sourcePoint" />
            <mxPoint x="615" y="380" as="targetPoint" />
          </mxGeometry>
        </mxCell>
        <mxCell id="N5i_9kAfN4ddNZ_Lg2z2-21" value="" style="edgeStyle=orthogonalEdgeStyle;rounded=0;orthogonalLoop=1;jettySize=auto;html=1;" edge="1" parent="gZisv0LToNcyDYz6pqxV-59" source="N5i_9kAfN4ddNZ_Lg2z2-17" target="N5i_9kAfN4ddNZ_Lg2z2-19">
          <mxGeometry relative="1" as="geometry" />
        </mxCell>
        <mxCell id="N5i_9kAfN4ddNZ_Lg2z2-17" value="&lt;b&gt;多人游戏&lt;/b&gt;&lt;div&gt;暂停&lt;/div&gt;&lt;div&gt;操作&lt;/div&gt;&lt;div&gt;显示&lt;/div&gt;&lt;div&gt;声音&lt;/div&gt;&lt;div&gt;退出&lt;/div&gt;" style="whiteSpace=wrap;html=1;rounded=0;" vertex="1" parent="gZisv0LToNcyDYz6pqxV-59">
          <mxGeometry x="585" y="470" width="120" height="100" as="geometry" />
        </mxCell>
        <mxCell id="N5i_9kAfN4ddNZ_Lg2z2-20" value="" style="edgeStyle=orthogonalEdgeStyle;rounded=0;orthogonalLoop=1;jettySize=auto;html=1;" edge="1" parent="gZisv0LToNcyDYz6pqxV-59" source="N5i_9kAfN4ddNZ_Lg2z2-15" target="N5i_9kAfN4ddNZ_Lg2z2-19">
          <mxGeometry relative="1" as="geometry" />
        </mxCell>
        <mxCell id="N5i_9kAfN4ddNZ_Lg2z2-23" value="" style="edgeStyle=orthogonalEdgeStyle;rounded=0;orthogonalLoop=1;jettySize=auto;html=1;entryX=1;entryY=0.25;entryDx=0;entryDy=0;" edge="1" parent="gZisv0LToNcyDYz6pqxV-59" source="N5i_9kAfN4ddNZ_Lg2z2-15" target="N5i_9kAfN4ddNZ_Lg2z2-22">
          <mxGeometry relative="1" as="geometry" />
        </mxCell>
        <mxCell id="N5i_9kAfN4ddNZ_Lg2z2-15" value="&lt;b&gt;开始游戏&lt;/b&gt;" style="whiteSpace=wrap;html=1;rounded=0;" vertex="1" parent="gZisv0LToNcyDYz6pqxV-59">
          <mxGeometry x="402.5" y="470" width="120" height="40" as="geometry" />
        </mxCell>
        <mxCell id="N5i_9kAfN4ddNZ_Lg2z2-16" value="" style="edgeStyle=orthogonalEdgeStyle;rounded=0;orthogonalLoop=1;jettySize=auto;html=1;" edge="1" parent="gZisv0LToNcyDYz6pqxV-59" source="N5i_9kAfN4ddNZ_Lg2z2-3" target="N5i_9kAfN4ddNZ_Lg2z2-15">
          <mxGeometry relative="1" as="geometry" />
        </mxCell>
        <mxCell id="N5i_9kAfN4ddNZ_Lg2z2-18" value="" style="edgeStyle=orthogonalEdgeStyle;rounded=0;orthogonalLoop=1;jettySize=auto;html=1;entryX=0.021;entryY=0.195;entryDx=0;entryDy=0;entryPerimeter=0;" edge="1" parent="gZisv0LToNcyDYz6pqxV-59" source="N5i_9kAfN4ddNZ_Lg2z2-15" target="N5i_9kAfN4ddNZ_Lg2z2-17">
          <mxGeometry relative="1" as="geometry" />
        </mxCell>
        <mxCell id="N5i_9kAfN4ddNZ_Lg2z2-19" value="&lt;b&gt;确定&lt;/b&gt;&lt;div&gt;确定要退出游戏吗？&lt;/div&gt;" style="whiteSpace=wrap;html=1;rounded=0;" vertex="1" parent="gZisv0LToNcyDYz6pqxV-59">
          <mxGeometry x="402.5" y="540" width="120" height="60" as="geometry" />
        </mxCell>
        <mxCell id="N5i_9kAfN4ddNZ_Lg2z2-24" value="" style="edgeStyle=orthogonalEdgeStyle;rounded=0;orthogonalLoop=1;jettySize=auto;html=1;" edge="1" parent="gZisv0LToNcyDYz6pqxV-59" source="N5i_9kAfN4ddNZ_Lg2z2-22" target="N5i_9kAfN4ddNZ_Lg2z2-19">
          <mxGeometry relative="1" as="geometry" />
        </mxCell>
        <mxCell id="N5i_9kAfN4ddNZ_Lg2z2-26" value="" style="edgeStyle=orthogonalEdgeStyle;rounded=0;orthogonalLoop=1;jettySize=auto;html=1;" edge="1" parent="gZisv0LToNcyDYz6pqxV-59" source="N5i_9kAfN4ddNZ_Lg2z2-22" target="N5i_9kAfN4ddNZ_Lg2z2-25">
          <mxGeometry relative="1" as="geometry" />
        </mxCell>
        <mxCell id="N5i_9kAfN4ddNZ_Lg2z2-22" value="&lt;b&gt;单人游戏&lt;/b&gt;&lt;div&gt;暂停&lt;/div&gt;&lt;div&gt;保存游戏&lt;/div&gt;&lt;div&gt;加载游戏&lt;/div&gt;&lt;div&gt;主菜单&lt;/div&gt;&lt;div&gt;回到游戏&lt;/div&gt;&lt;div&gt;退出&lt;/div&gt;" style="whiteSpace=wrap;html=1;rounded=0;" vertex="1" parent="gZisv0LToNcyDYz6pqxV-59">
          <mxGeometry x="225" y="460" width="120" height="120" as="geometry" />
        </mxCell>
        <mxCell id="N5i_9kAfN4ddNZ_Lg2z2-25" value="&lt;b&gt;保存游戏&lt;/b&gt;&lt;div&gt;存档1&lt;/div&gt;&lt;div&gt;存档2&lt;/div&gt;&lt;div&gt;存档3&lt;/div&gt;&lt;div&gt;存档4&lt;br&gt;……&lt;/div&gt;" style="whiteSpace=wrap;html=1;rounded=0;direction=south;" vertex="1" parent="gZisv0LToNcyDYz6pqxV-59">
          <mxGeometry x="70" y="465" width="90" height="110" as="geometry" />
        </mxCell>
        <mxCell id="N5i_9kAfN4ddNZ_Lg2z2-31" value="" style="edgeStyle=orthogonalEdgeStyle;rounded=0;orthogonalLoop=1;jettySize=auto;html=1;" edge="1" parent="gZisv0LToNcyDYz6pqxV-59" source="N5i_9kAfN4ddNZ_Lg2z2-30" target="N5i_9kAfN4ddNZ_Lg2z2-3">
          <mxGeometry relative="1" as="geometry" />
        </mxCell>
        <mxCell id="N5i_9kAfN4ddNZ_Lg2z2-30" value="&lt;b&gt;加载游戏&lt;/b&gt;&lt;br&gt;&lt;div&gt;存档1&lt;/div&gt;&lt;div&gt;存档2&lt;/div&gt;&lt;div&gt;存档3&lt;/div&gt;&lt;div&gt;存档4&lt;br&gt;……&lt;/div&gt;" style="whiteSpace=wrap;html=1;rounded=0;direction=south;" vertex="1" parent="gZisv0LToNcyDYz6pqxV-59">
          <mxGeometry x="240" y="320" width="90" height="110" as="geometry" />
        </mxCell>
        <mxCell id="N5i_9kAfN4ddNZ_Lg2z2-48" value="" style="edgeStyle=orthogonalEdgeStyle;rounded=0;orthogonalLoop=1;jettySize=auto;html=1;" edge="1" parent="gZisv0LToNcyDYz6pqxV-59" source="N5i_9kAfN4ddNZ_Lg2z2-33" target="N5i_9kAfN4ddNZ_Lg2z2-47">
          <mxGeometry relative="1" as="geometry" />
        </mxCell>
        <mxCell id="N5i_9kAfN4ddNZ_Lg2z2-33" value="&lt;b&gt;选项&lt;/b&gt;&lt;div&gt;操作&lt;/div&gt;&lt;div&gt;显示&lt;/div&gt;&lt;div&gt;声音&lt;/div&gt;&lt;div&gt;退出&lt;/div&gt;" style="rounded=0;whiteSpace=wrap;html=1;" vertex="1" parent="gZisv0LToNcyDYz6pqxV-59">
          <mxGeometry x="210" y="122.5" width="122.5" height="100" as="geometry" />
        </mxCell>
        <mxCell id="N5i_9kAfN4ddNZ_Lg2z2-43" value="&lt;b&gt;显示&lt;/b&gt;&lt;br&gt;&lt;div&gt;分辨率1&lt;/div&gt;&lt;div&gt;分辨率2&lt;br&gt;&lt;/div&gt;&lt;div&gt;分辨率3&lt;br&gt;&lt;/div&gt;&lt;div&gt;退出&lt;/div&gt;" style="whiteSpace=wrap;html=1;rounded=0;" vertex="1" parent="gZisv0LToNcyDYz6pqxV-59">
          <mxGeometry x="20" y="32.5" width="120" height="77.5" as="geometry" />
        </mxCell>
        <mxCell id="N5i_9kAfN4ddNZ_Lg2z2-45" value="&lt;b&gt;声音&lt;/b&gt;&lt;div&gt;音效音量&lt;/div&gt;&lt;div&gt;音乐音量&lt;/div&gt;&lt;div&gt;退出&lt;/div&gt;" style="whiteSpace=wrap;html=1;rounded=0;" vertex="1" parent="gZisv0LToNcyDYz6pqxV-59">
          <mxGeometry x="20" y="290" width="120" height="60" as="geometry" />
        </mxCell>
        <mxCell id="N5i_9kAfN4ddNZ_Lg2z2-47" value="&lt;b&gt;操作&lt;/b&gt;&lt;br&gt;&lt;div&gt;标准操作&lt;/div&gt;&lt;div&gt;加载角色&lt;/div&gt;&lt;div&gt;回到默认状态&lt;/div&gt;&lt;div&gt;始终奔跑移动&lt;/div&gt;&lt;div&gt;鼠标自由锁定模式&lt;/div&gt;&lt;div&gt;反转鼠标&lt;/div&gt;&lt;div&gt;鼠标灵敏度&lt;/div&gt;&lt;div&gt;退出&lt;/div&gt;" style="whiteSpace=wrap;html=1;rounded=0;" vertex="1" parent="gZisv0LToNcyDYz6pqxV-59">
          <mxGeometry x="20" y="122.5" width="120" height="147.5" as="geometry" />
        </mxCell>
        <mxCell id="N5i_9kAfN4ddNZ_Lg2z2-49" value="" style="endArrow=classic;html=1;rounded=0;exitX=0;exitY=0;exitDx=0;exitDy=0;entryX=1;entryY=1;entryDx=0;entryDy=0;" edge="1" parent="gZisv0LToNcyDYz6pqxV-59" source="N5i_9kAfN4ddNZ_Lg2z2-33" target="N5i_9kAfN4ddNZ_Lg2z2-43">
          <mxGeometry width="50" height="50" relative="1" as="geometry">
            <mxPoint x="310" y="180" as="sourcePoint" />
            <mxPoint x="360" y="130" as="targetPoint" />
          </mxGeometry>
        </mxCell>
        <mxCell id="N5i_9kAfN4ddNZ_Lg2z2-50" value="" style="endArrow=classic;html=1;rounded=0;entryX=1;entryY=0;entryDx=0;entryDy=0;exitX=0;exitY=1;exitDx=0;exitDy=0;" edge="1" parent="gZisv0LToNcyDYz6pqxV-59" source="N5i_9kAfN4ddNZ_Lg2z2-33" target="N5i_9kAfN4ddNZ_Lg2z2-45">
          <mxGeometry width="50" height="50" relative="1" as="geometry">
            <mxPoint x="170" y="230" as="sourcePoint" />
            <mxPoint x="220" y="180" as="targetPoint" />
          </mxGeometry>
        </mxCell>
        <mxCell id="gZisv0LToNcyDYz6pqxV-61" value="" style="endArrow=none;dashed=1;html=1;rounded=0;exitX=1;exitY=0.5;exitDx=0;exitDy=0;entryX=0;entryY=0;entryDx=0;entryDy=0;" parent="gZisv0LToNcyDYz6pqxV-2" source="gZisv0LToNcyDYz6pqxV-16" target="gZisv0LToNcyDYz6pqxV-59" edge="1">
          <mxGeometry width="50" height="50" relative="1" as="geometry">
            <mxPoint x="420" y="390" as="sourcePoint" />
            <mxPoint x="470" y="340" as="targetPoint" />
          </mxGeometry>
        </mxCell>
        <mxCell id="N5i_9kAfN4ddNZ_Lg2z2-51" value="&lt;div style=&quot;&quot;&gt;&lt;span style=&quot;font-size: 14px; font-weight: 400;&quot;&gt;关卡任务流程图实例（游戏世界说明图）&lt;/span&gt;&lt;/div&gt;" style="swimlane;whiteSpace=wrap;html=1;fontSize=24;startSize=23;align=center;" vertex="1" parent="gZisv0LToNcyDYz6pqxV-2">
          <mxGeometry x="480" y="280" width="890" height="620" as="geometry">
            <mxRectangle x="400" y="285" width="280" height="40" as="alternateBounds" />
          </mxGeometry>
        </mxCell>
        <mxCell id="N5i_9kAfN4ddNZ_Lg2z2-96" value="" style="rounded=1;whiteSpace=wrap;html=1;" vertex="1" parent="N5i_9kAfN4ddNZ_Lg2z2-51">
          <mxGeometry x="730" y="410" width="140" height="190" as="geometry" />
        </mxCell>
        <mxCell id="N5i_9kAfN4ddNZ_Lg2z2-99" value="" style="edgeStyle=orthogonalEdgeStyle;rounded=0;orthogonalLoop=1;jettySize=auto;html=1;exitX=0.535;exitY=1;exitDx=0;exitDy=0;exitPerimeter=0;" edge="1" parent="N5i_9kAfN4ddNZ_Lg2z2-51" source="N5i_9kAfN4ddNZ_Lg2z2-110" target="N5i_9kAfN4ddNZ_Lg2z2-98">
          <mxGeometry relative="1" as="geometry">
            <mxPoint x="105.00000000000023" y="130" as="sourcePoint" />
            <Array as="points">
              <mxPoint x="105" y="120" />
              <mxPoint x="105" y="175" />
            </Array>
          </mxGeometry>
        </mxCell>
        <mxCell id="N5i_9kAfN4ddNZ_Lg2z2-114" value="" style="edgeStyle=orthogonalEdgeStyle;rounded=0;orthogonalLoop=1;jettySize=auto;html=1;entryX=0.25;entryY=0;entryDx=0;entryDy=0;" edge="1" parent="N5i_9kAfN4ddNZ_Lg2z2-51" source="N5i_9kAfN4ddNZ_Lg2z2-98" target="N5i_9kAfN4ddNZ_Lg2z2-112">
          <mxGeometry relative="1" as="geometry" />
        </mxCell>
        <mxCell id="N5i_9kAfN4ddNZ_Lg2z2-98" value="过场动画" style="ellipse;whiteSpace=wrap;html=1;aspect=fixed;" vertex="1" parent="N5i_9kAfN4ddNZ_Lg2z2-51">
          <mxGeometry x="170" y="155" width="35" height="35" as="geometry" />
        </mxCell>
        <mxCell id="N5i_9kAfN4ddNZ_Lg2z2-110" value="&lt;div&gt;&lt;br&gt;&lt;/div&gt;&lt;div style=&quot;&quot;&gt;&lt;span style=&quot;background-color: transparent; color: light-dark(rgb(0, 0, 0), rgb(255, 255, 255));&quot;&gt;&lt;br&gt;&lt;/span&gt;&lt;/div&gt;&lt;div style=&quot;&quot;&gt;&lt;span style=&quot;background-color: transparent; color: light-dark(rgb(0, 0, 0), rgb(255, 255, 255));&quot;&gt;混沌&lt;/span&gt;&lt;/div&gt;" style="html=1;dropTarget=0;whiteSpace=wrap;rounded=0;align=center;strokeColor=default;verticalAlign=middle;fontFamily=Helvetica;fontSize=12;fontColor=default;fillColor=default;" vertex="1" parent="N5i_9kAfN4ddNZ_Lg2z2-51">
          <mxGeometry x="70" y="55" width="70" height="65" as="geometry" />
        </mxCell>
        <mxCell id="N5i_9kAfN4ddNZ_Lg2z2-111" value="1" style="shape=module;jettyWidth=8;jettyHeight=4;rounded=0;strokeColor=default;align=center;verticalAlign=middle;fontFamily=Helvetica;fontSize=12;fontColor=default;fillColor=default;" vertex="1" parent="N5i_9kAfN4ddNZ_Lg2z2-110">
          <mxGeometry x="1" width="29" height="20" relative="1" as="geometry">
            <mxPoint x="-38" y="7" as="offset" />
          </mxGeometry>
        </mxCell>
        <mxCell id="N5i_9kAfN4ddNZ_Lg2z2-131" value="" style="edgeStyle=orthogonalEdgeStyle;rounded=0;orthogonalLoop=1;jettySize=auto;html=1;entryX=0.5;entryY=0;entryDx=0;entryDy=0;" edge="1" parent="N5i_9kAfN4ddNZ_Lg2z2-51" source="N5i_9kAfN4ddNZ_Lg2z2-112" target="N5i_9kAfN4ddNZ_Lg2z2-129">
          <mxGeometry relative="1" as="geometry" />
        </mxCell>
        <mxCell id="N5i_9kAfN4ddNZ_Lg2z2-134" value="" style="edgeStyle=orthogonalEdgeStyle;rounded=0;orthogonalLoop=1;jettySize=auto;html=1;entryX=0;entryY=0.5;entryDx=0;entryDy=0;" edge="1" parent="N5i_9kAfN4ddNZ_Lg2z2-51" source="N5i_9kAfN4ddNZ_Lg2z2-112" target="N5i_9kAfN4ddNZ_Lg2z2-132">
          <mxGeometry relative="1" as="geometry" />
        </mxCell>
        <mxCell id="N5i_9kAfN4ddNZ_Lg2z2-112" value="旧城1" style="html=1;dropTarget=0;whiteSpace=wrap;rounded=1;" vertex="1" parent="N5i_9kAfN4ddNZ_Lg2z2-51">
          <mxGeometry x="220" y="210" width="100" height="100" as="geometry" />
        </mxCell>
        <mxCell id="N5i_9kAfN4ddNZ_Lg2z2-113" value="2" style="shape=module;jettyWidth=8;jettyHeight=4;" vertex="1" parent="N5i_9kAfN4ddNZ_Lg2z2-112">
          <mxGeometry x="1" width="29" height="20" relative="1" as="geometry">
            <mxPoint x="-38" y="7" as="offset" />
          </mxGeometry>
        </mxCell>
        <mxCell id="N5i_9kAfN4ddNZ_Lg2z2-121" value="" style="edgeStyle=orthogonalEdgeStyle;rounded=0;orthogonalLoop=1;jettySize=auto;html=1;" edge="1" parent="N5i_9kAfN4ddNZ_Lg2z2-51" source="N5i_9kAfN4ddNZ_Lg2z2-115" target="N5i_9kAfN4ddNZ_Lg2z2-119">
          <mxGeometry relative="1" as="geometry" />
        </mxCell>
        <mxCell id="N5i_9kAfN4ddNZ_Lg2z2-115" value="&lt;div&gt;&lt;br&gt;&lt;/div&gt;&lt;div style=&quot;&quot;&gt;&lt;span style=&quot;background-color: transparent; color: light-dark(rgb(0, 0, 0), rgb(255, 255, 255));&quot;&gt;&lt;br&gt;&lt;/span&gt;&lt;/div&gt;&lt;div style=&quot;&quot;&gt;&lt;span style=&quot;background-color: transparent; color: light-dark(rgb(0, 0, 0), rgb(255, 255, 255));&quot;&gt;混沌&lt;/span&gt;&lt;/div&gt;" style="html=1;dropTarget=0;whiteSpace=wrap;rounded=0;align=center;strokeColor=default;verticalAlign=middle;fontFamily=Helvetica;fontSize=12;fontColor=default;fillColor=default;" vertex="1" parent="N5i_9kAfN4ddNZ_Lg2z2-51">
          <mxGeometry x="110" y="227.5" width="70" height="65" as="geometry" />
        </mxCell>
        <mxCell id="N5i_9kAfN4ddNZ_Lg2z2-116" value="3" style="shape=module;jettyWidth=8;jettyHeight=4;rounded=0;strokeColor=default;align=center;verticalAlign=middle;fontFamily=Helvetica;fontSize=12;fontColor=default;fillColor=default;" vertex="1" parent="N5i_9kAfN4ddNZ_Lg2z2-115">
          <mxGeometry x="1" width="29" height="20" relative="1" as="geometry">
            <mxPoint x="-38" y="7" as="offset" />
          </mxGeometry>
        </mxCell>
        <mxCell id="N5i_9kAfN4ddNZ_Lg2z2-118" value="" style="edgeStyle=orthogonalEdgeStyle;rounded=0;orthogonalLoop=1;jettySize=auto;html=1;entryX=1;entryY=0.5;entryDx=0;entryDy=0;" edge="1" parent="N5i_9kAfN4ddNZ_Lg2z2-51" source="N5i_9kAfN4ddNZ_Lg2z2-112" target="N5i_9kAfN4ddNZ_Lg2z2-115">
          <mxGeometry relative="1" as="geometry" />
        </mxCell>
        <mxCell id="N5i_9kAfN4ddNZ_Lg2z2-124" value="" style="edgeStyle=orthogonalEdgeStyle;rounded=0;orthogonalLoop=1;jettySize=auto;html=1;" edge="1" parent="N5i_9kAfN4ddNZ_Lg2z2-51" source="N5i_9kAfN4ddNZ_Lg2z2-119" target="N5i_9kAfN4ddNZ_Lg2z2-122">
          <mxGeometry relative="1" as="geometry" />
        </mxCell>
        <mxCell id="N5i_9kAfN4ddNZ_Lg2z2-119" value="&lt;div&gt;&lt;br&gt;&lt;/div&gt;&lt;div style=&quot;&quot;&gt;&lt;span style=&quot;background-color: transparent; color: light-dark(rgb(0, 0, 0), rgb(255, 255, 255));&quot;&gt;&lt;br&gt;&lt;/span&gt;&lt;/div&gt;&lt;div style=&quot;&quot;&gt;旅馆&lt;/div&gt;" style="html=1;dropTarget=0;whiteSpace=wrap;rounded=0;align=center;strokeColor=default;verticalAlign=middle;fontFamily=Helvetica;fontSize=12;fontColor=default;fillColor=default;" vertex="1" parent="N5i_9kAfN4ddNZ_Lg2z2-51">
          <mxGeometry x="10" y="227.5" width="70" height="65" as="geometry" />
        </mxCell>
        <mxCell id="N5i_9kAfN4ddNZ_Lg2z2-120" value="4" style="shape=module;jettyWidth=8;jettyHeight=4;rounded=0;strokeColor=default;align=center;verticalAlign=middle;fontFamily=Helvetica;fontSize=12;fontColor=default;fillColor=default;" vertex="1" parent="N5i_9kAfN4ddNZ_Lg2z2-119">
          <mxGeometry x="1" width="29" height="20" relative="1" as="geometry">
            <mxPoint x="-38" y="7" as="offset" />
          </mxGeometry>
        </mxCell>
        <mxCell id="N5i_9kAfN4ddNZ_Lg2z2-127" value="" style="edgeStyle=orthogonalEdgeStyle;rounded=0;orthogonalLoop=1;jettySize=auto;html=1;" edge="1" parent="N5i_9kAfN4ddNZ_Lg2z2-51" source="N5i_9kAfN4ddNZ_Lg2z2-122" target="N5i_9kAfN4ddNZ_Lg2z2-125">
          <mxGeometry relative="1" as="geometry" />
        </mxCell>
        <mxCell id="N5i_9kAfN4ddNZ_Lg2z2-122" value="&lt;div&gt;&lt;br&gt;&lt;/div&gt;&lt;div style=&quot;&quot;&gt;&lt;span style=&quot;background-color: transparent; color: light-dark(rgb(0, 0, 0), rgb(255, 255, 255));&quot;&gt;&lt;br&gt;&lt;/span&gt;&lt;/div&gt;&lt;div style=&quot;&quot;&gt;房顶&lt;/div&gt;" style="html=1;dropTarget=0;whiteSpace=wrap;rounded=0;align=center;strokeColor=default;verticalAlign=middle;fontFamily=Helvetica;fontSize=12;fontColor=default;fillColor=default;" vertex="1" parent="N5i_9kAfN4ddNZ_Lg2z2-51">
          <mxGeometry x="10" y="330" width="70" height="65" as="geometry" />
        </mxCell>
        <mxCell id="N5i_9kAfN4ddNZ_Lg2z2-123" value="5" style="shape=module;jettyWidth=8;jettyHeight=4;rounded=0;strokeColor=default;align=center;verticalAlign=middle;fontFamily=Helvetica;fontSize=12;fontColor=default;fillColor=default;" vertex="1" parent="N5i_9kAfN4ddNZ_Lg2z2-122">
          <mxGeometry x="1" width="29" height="20" relative="1" as="geometry">
            <mxPoint x="-38" y="7" as="offset" />
          </mxGeometry>
        </mxCell>
        <mxCell id="N5i_9kAfN4ddNZ_Lg2z2-128" value="" style="edgeStyle=orthogonalEdgeStyle;rounded=0;orthogonalLoop=1;jettySize=auto;html=1;entryX=0.5;entryY=1;entryDx=0;entryDy=0;" edge="1" parent="N5i_9kAfN4ddNZ_Lg2z2-51" source="N5i_9kAfN4ddNZ_Lg2z2-125" target="N5i_9kAfN4ddNZ_Lg2z2-115">
          <mxGeometry relative="1" as="geometry" />
        </mxCell>
        <mxCell id="N5i_9kAfN4ddNZ_Lg2z2-125" value="&lt;div&gt;&lt;br&gt;&lt;/div&gt;&lt;div style=&quot;&quot;&gt;&lt;span style=&quot;background-color: transparent; color: light-dark(rgb(0, 0, 0), rgb(255, 255, 255));&quot;&gt;&lt;br&gt;&lt;/span&gt;&lt;/div&gt;&lt;div style=&quot;&quot;&gt;房顶&lt;/div&gt;" style="html=1;dropTarget=0;whiteSpace=wrap;rounded=0;align=center;strokeColor=default;verticalAlign=middle;fontFamily=Helvetica;fontSize=12;fontColor=default;fillColor=default;" vertex="1" parent="N5i_9kAfN4ddNZ_Lg2z2-51">
          <mxGeometry x="110" y="330" width="70" height="65" as="geometry" />
        </mxCell>
        <mxCell id="N5i_9kAfN4ddNZ_Lg2z2-126" value="6" style="shape=module;jettyWidth=8;jettyHeight=4;rounded=0;strokeColor=default;align=center;verticalAlign=middle;fontFamily=Helvetica;fontSize=12;fontColor=default;fillColor=default;" vertex="1" parent="N5i_9kAfN4ddNZ_Lg2z2-125">
          <mxGeometry x="1" width="29" height="20" relative="1" as="geometry">
            <mxPoint x="-38" y="7" as="offset" />
          </mxGeometry>
        </mxCell>
        <mxCell id="N5i_9kAfN4ddNZ_Lg2z2-129" value="&lt;div&gt;&lt;br&gt;&lt;/div&gt;&lt;div style=&quot;&quot;&gt;&lt;span style=&quot;background-color: transparent; color: light-dark(rgb(0, 0, 0), rgb(255, 255, 255));&quot;&gt;&lt;br&gt;&lt;/span&gt;&lt;/div&gt;&lt;div style=&quot;&quot;&gt;医院&lt;/div&gt;" style="html=1;dropTarget=0;whiteSpace=wrap;rounded=0;align=center;strokeColor=default;verticalAlign=middle;fontFamily=Helvetica;fontSize=12;fontColor=default;fillColor=default;" vertex="1" parent="N5i_9kAfN4ddNZ_Lg2z2-51">
          <mxGeometry x="235" y="340" width="70" height="65" as="geometry" />
        </mxCell>
        <mxCell id="N5i_9kAfN4ddNZ_Lg2z2-130" value="7" style="shape=module;jettyWidth=8;jettyHeight=4;rounded=0;strokeColor=default;align=center;verticalAlign=middle;fontFamily=Helvetica;fontSize=12;fontColor=default;fillColor=default;" vertex="1" parent="N5i_9kAfN4ddNZ_Lg2z2-129">
          <mxGeometry x="1" width="29" height="20" relative="1" as="geometry">
            <mxPoint x="-38" y="7" as="offset" />
          </mxGeometry>
        </mxCell>
        <mxCell id="N5i_9kAfN4ddNZ_Lg2z2-132" value="&lt;div&gt;&lt;br&gt;&lt;/div&gt;&lt;div style=&quot;&quot;&gt;&lt;span style=&quot;background-color: transparent; color: light-dark(rgb(0, 0, 0), rgb(255, 255, 255));&quot;&gt;&lt;br&gt;&lt;/span&gt;&lt;/div&gt;&lt;div style=&quot;&quot;&gt;下水道&lt;/div&gt;" style="html=1;dropTarget=0;whiteSpace=wrap;rounded=0;align=center;strokeColor=default;verticalAlign=middle;fontFamily=Helvetica;fontSize=12;fontColor=default;fillColor=default;" vertex="1" parent="N5i_9kAfN4ddNZ_Lg2z2-51">
          <mxGeometry x="360" y="227.5" width="70" height="65" as="geometry" />
        </mxCell>
        <mxCell id="N5i_9kAfN4ddNZ_Lg2z2-133" value="8" style="shape=module;jettyWidth=8;jettyHeight=4;rounded=0;strokeColor=default;align=center;verticalAlign=middle;fontFamily=Helvetica;fontSize=12;fontColor=default;fillColor=default;" vertex="1" parent="N5i_9kAfN4ddNZ_Lg2z2-132">
          <mxGeometry x="1" width="29" height="20" relative="1" as="geometry">
            <mxPoint x="-38" y="7" as="offset" />
          </mxGeometry>
        </mxCell>
        <mxCell id="N5i_9kAfN4ddNZ_Lg2z2-95" value="" style="endArrow=none;dashed=1;html=1;rounded=0;exitX=1;exitY=0.5;exitDx=0;exitDy=0;entryX=0;entryY=0;entryDx=0;entryDy=0;" edge="1" parent="gZisv0LToNcyDYz6pqxV-2" source="gZisv0LToNcyDYz6pqxV-16" target="N5i_9kAfN4ddNZ_Lg2z2-51">
          <mxGeometry width="50" height="50" relative="1" as="geometry">
            <mxPoint x="420" y="380" as="sourcePoint" />
            <mxPoint x="470" y="330" as="targetPoint" />
          </mxGeometry>
        </mxCell>
      </root>
    </mxGraphModel>
  </diagram>
</mxfile>
